<svg preserveAspectRatio="xMidYMid meet" viewBox="80.6 31 418.1 450" height="512" width="512" xmlns="http://www.w3.org/2000/svg" role="img" aria-label="Stroll Magazine">
    <g>
        <path d="M333.1 278.9c-12.8-11.4-31.9-20.3-63.8-29.7-45.5-15-51.6-20.9-51.6-36.2 0-16.8 14.3-27.3 37.3-27.3 33.9 0 41 18.1 41 33.2v17.5h55.8v-18.6c0-23.9-8.1-44.1-23.4-58.3-16.7-15.5-41-23.3-72.3-23.3-56.8 0-94.9 31.4-94.9 78.3 0 48.2 30.7 66.2 83.7 81.2 22 7.1 36.2 12.3 44.1 18.1 7.5 5.5 8.9 11.3 8.9 20 0 24.4-24.8 28-39.5 28-15.1 0-26.5-3-33.8-9s-10.9-14.9-10.9-27.2v-18.3h-56.2v21.2c0 24.9 8.7 45.6 25.2 60 17.3 15.1 42.4 22.7 74.5 22.7 28.2 0 52.1-7 69.2-20.4 18.3-14.2 27.9-34.7 27.9-59.4.1-22.9-6.6-39.6-21.2-52.5M315 376c-13.8 10.7-33.7 16.4-57.7 16.4-52.2 0-81-22.7-81-63.9V326H195c.1 17 5.6 30.4 16.3 39.9 10.9 9.7 26.8 14.6 47.1 14.6 36.5 0 58.3-17.5 58.3-46.8 0-16-5.2-26.8-16.7-35.2-11-8-27.4-13.6-49.4-20.7l-.3-.1c-53.1-15-70.2-30.3-70.2-63.2 0-36.1 29.9-59.5 76.2-59.5 49.5 0 76.9 22.3 76.9 62.7h-18.3c-.6-31.8-22.8-50.7-59.7-50.7-16.5 0-30.4 4.3-40.4 12.4-10.1 8.2-15.7 20.2-15.7 33.7 0 31.3 22.1 40.1 64.6 54.1l.3.1c55.7 16.5 71.8 30.9 71.8 64.3-.1 18.8-7.1 33.8-20.8 44.4" fill="#333333" data-color="1"/>
        <path d="m299.5 50 2.5-19h-92l2.6 19.6c-36 5.3-69.1 23.4-93.4 50.9-24.9 28.3-38.6 64.5-38.6 102.1v242.1h35.2V481h280.3v-35.2h35.2V198.7c0-37.1-13.7-72.8-38.7-100.4-24.3-26.9-57.4-44-93.1-48.3m-18.9-.2c-1.1 8.4-1.8 13.7-6.8 51.8h-35.5c-.6-4.7-6.4-48.2-6.8-51.8zM115.9 427H99.4V203.6c0-67 49.6-124.5 115.7-134.4l2.2 16.3c-57.9 8.8-101.4 59.3-101.4 118.1zm261.5 35.2H134.6v-16.5h242.8zm0-35.2H134.6V203.6c0-49.4 36.4-91.9 85.1-99.5l2.1 16.2h68.4l2.2-16.8c22.9 2.6 44.1 13.4 59.9 30.5 16.2 17.7 25.1 40.6 25.1 64.6zm35.2 0h-16.5V198.7c0-28.6-10.6-55.9-29.9-77.1-18.7-20.5-44-33.5-71.4-36.7l2.1-16.3c31.3 3.7 60.3 18.6 81.6 42.1 21.9 24.1 34 55.4 34 87.9V427z" fill="#333333" data-color="1"/>
        <path d="M475.4 435.9c-13.5 0-23.1 10-23.1 22.7s9.5 22.4 23.1 22.4 23.3-9.8 23.3-22.4c0-12.7-9.6-22.7-23.3-22.7m0 41.6c-11.7 0-19.2-8.2-19.2-19 0-10.9 7.4-19 19.2-19 12 0 19.3 8.1 19.3 19s-7.3 19-19.3 19" fill="#333333" data-color="1"/>
        <path d="M485.9 454.3c0-4.6-2.8-7.1-8.3-7.1h-11.2v22.2h5v-7.8h4.7l4.7 7.8h5.6l-5.1-8.4c2.9-1 4.6-3.3 4.6-6.7m-9.3 3.4h-5.1v-6.6h5.2c2.9 0 4.1 1.1 4.1 3.3 0 2.4-1.4 3.3-4.2 3.3" fill="#333333" data-color="1"/>
    </g>
</svg>